<svg width="8128" height="5313" viewBox="0 0 8128 5313" fill="none" xmlns="http://www.w3.org/2000/svg">
<path d="M5164 1710.55V2336C5164 2421.37 5094.82 2490.56 5009.45 2490.56H4639.23C4229.63 2490.56 3897.58 2822.61 3897.58 3232.22V3602.49C3897.58 3687.82 3828.4 3757 3743.03 3757H3117.55C3032.18 3757.04 2963 3687.86 2963 3602.53V2977.04C2963 2891.71 3032.18 2822.53 3117.55 2822.53H3487.77C3897.37 2822.53 4229.42 2490.47 4229.42 2080.82V1710.6C4229.46 1625.23 4298.65 1556 4384.01 1556H5009.41C5094.82 1556 5164 1625.23 5164 1710.55Z" fill="black"/>
<path d="M3117.55 1556L3743 1556C3828.37 1556 3897.56 1625.18 3897.56 1710.55L3897.56 2080.77C3897.56 2490.37 4229.61 2822.42 4639.22 2822.42L5009.49 2822.42C5094.82 2822.42 5164 2891.6 5164 2976.97L5164 3602.45C5164.04 3687.82 5094.86 3757 5009.53 3757L4384.04 3757C4298.71 3757 4229.53 3687.82 4229.53 3602.45L4229.53 3232.23C4229.53 2822.63 3897.47 2490.58 3487.82 2490.58L3117.6 2490.58C3032.23 2490.54 2963 2421.35 2963 2335.99L2963 1710.59C2963 1625.18 3032.23 1556 3117.55 1556Z" fill="black"/>
</svg>
