<svg width="8128" height="5313" viewBox="0 0 8128 5313" fill="none" xmlns="http://www.w3.org/2000/svg">
<path d="M5125 2888.86V3607.71C5125 3665.23 5077.97 3712 5020.13 3712H4297.3C4239.48 3712 4192.43 3665.23 4192.43 3607.71V3208.93C4192.43 3190.85 4191.73 3172.9 4190.31 3155.08C4179.65 3018.85 4128.55 2890.73 4042.84 2784.57C4042.26 2783.87 4041.69 2783.16 4041.12 2782.46C4025.93 2763.8 4009.68 2745.82 3992.37 2728.61C3975.04 2711.4 3956.97 2695.22 3938.18 2680.09C3937.48 2679.52 3936.76 2678.95 3936.06 2678.38C3828.5 2592.51 3698.53 2541.59 3560.37 2531.52C3549.82 2530.74 3539.23 2530.21 3528.6 2529.94C3522.2 2529.75 3515.8 2529.66 3509.38 2529.66C3502.96 2529.66 3496.56 2529.75 3490.19 2529.94H3108.14C3050.18 2529.94 3003 2483.02 3003 2425.37V1706.54C3003 1648.9 3050.18 1602 3108.14 1602H3830.98C3888.94 1602 3936.12 1648.9 3936.12 1706.54V2095.76C3936.08 2098.94 3936.06 2102.12 3936.06 2105.3C3936.06 2108.48 3936.08 2111.67 3936.12 2114.85C3936.29 2127.59 3936.82 2140.28 3937.71 2152.9C3947.29 2291.46 3998.62 2421.88 4085.67 2529.66C4086.22 2530.38 4086.8 2531.07 4087.39 2531.77C4102.56 2550.44 4118.83 2568.41 4136.14 2585.62C4153.45 2602.83 4171.5 2618.99 4190.27 2634.1C4190.97 2634.67 4191.66 2635.24 4192.39 2635.81C4299.12 2721.07 4427.97 2771.86 4564.98 2782.46C4582.9 2783.87 4600.95 2784.57 4619.13 2784.57H5020.13C5077.97 2784.57 5125 2831.36 5125 2888.86Z" fill="black"/>
<path d="M4297.18 1602H5020.12C5077.96 1602 5125 1648.77 5125 1706.28V2425.02C5125 2482.51 5077.96 2529.3 5020.12 2529.3H4619.07C4600.89 2529.3 4582.84 2529.99 4564.91 2531.41C4427.91 2542 4299.06 2592.81 4192.29 2678.04C4191.6 2678.61 4190.88 2679.18 4190.18 2679.75C4171.4 2694.86 4153.33 2711.01 4136.02 2728.22C4118.71 2745.46 4102.44 2763.42 4087.22 2782.11C4086.65 2782.81 4086.08 2783.52 4085.51 2784.22C3999.14 2891.17 3947.93 3020.41 3937.8 3157.78C3937.02 3168.27 3936.49 3178.8 3936.21 3189.38C3936.02 3195.74 3935.94 3202.1 3935.94 3208.48C3935.94 3214.87 3936.02 3221.23 3936.21 3227.57V3607.45C3936.21 3665.09 3889.03 3712 3831.06 3712H3108.14C3050.16 3712 3003 3665.09 3003 3607.45V2888.7C3003 2831.07 3050.16 2784.15 3108.14 2784.15H3499.57C3502.77 2784.2 3505.97 2784.22 3509.17 2784.22C3512.36 2784.22 3515.56 2784.2 3518.76 2784.15C3531.58 2783.99 3544.34 2783.46 3557.03 2782.57C3696.38 2773.05 3827.54 2722.01 3935.94 2635.45C3936.66 2634.9 3937.36 2634.33 3938.06 2633.74C3956.83 2618.66 3974.9 2602.48 3992.21 2585.27C4009.53 2568.06 4025.78 2550.11 4040.97 2531.45C4041.54 2530.75 4042.11 2530.06 4042.68 2529.34C4128.43 2423.21 4179.52 2295.09 4190.18 2158.86C4191.6 2141.03 4192.29 2123.09 4192.29 2105.01V1706.28C4192.29 1648.77 4239.35 1602 4297.18 1602Z" fill="black"/>
</svg>
