<svg width="8128" height="5313" viewBox="0 0 8128 5313" fill="none" xmlns="http://www.w3.org/2000/svg">
<g clip-path="url(#clip0_1058_230)">
<path d="M3820.04 1651H3222.86C3129.75 1651 3054 1726.7 3054 1819.75V2416.52C3054 2509.57 3129.75 2585.26 3222.86 2585.26H3692.63C3675.35 2583.42 3657.85 2582.48 3640.1 2582.48H3222.86C3131.29 2582.48 3056.79 2508.03 3056.79 2416.52V1819.75C3056.79 1728.26 3131.29 1653.79 3222.86 1653.79H3820.04C3911.62 1653.79 3986.11 1728.26 3986.11 1819.75V2236.7C3986.11 2254.44 3987.06 2271.93 3988.9 2289.19V1819.75C3988.9 1726.7 3913.15 1651 3820.04 1651Z" fill="black"/>
<path d="M5063.58 2896.51V3493.25C5063.58 3584.77 4989.09 3659.21 4897.51 3659.21H4300.33C4208.78 3659.21 4134.26 3584.77 4134.26 3493.25V3076.33C4134.26 3058.59 4133.31 3041.07 4131.47 3023.84C4119.41 2910.2 4068.61 2807.95 3992.59 2730.55C3991.69 2729.6 3990.77 2728.68 3989.85 2727.76C3989.52 2727.46 3989.21 2727.12 3988.9 2726.82C3987.98 2725.89 3987.06 2724.97 3986.11 2724.08C3908.66 2648.08 3806.34 2597.31 3692.63 2585.26C3675.35 2583.42 3657.85 2582.47 3640.1 2582.47H3222.86C3131.28 2582.47 3056.79 2508.03 3056.79 2416.52V1819.75C3056.79 1728.26 3131.28 1653.79 3222.86 1653.79H3820.04C3911.62 1653.79 3986.11 1728.26 3986.11 1819.75V2236.7C3986.11 2254.44 3987.06 2271.93 3988.9 2289.19C4000.96 2402.82 4051.76 2505.08 4127.81 2582.47C4128.71 2583.42 4129.63 2584.34 4130.55 2585.26L4131.47 2586.18C4132.39 2587.11 4133.31 2588.03 4134.26 2588.92C4211.71 2664.95 4314.04 2715.71 4427.74 2727.76C4445.02 2729.6 4462.52 2730.55 4480.27 2730.55H4897.51C4989.09 2730.55 5063.58 2805 5063.58 2896.51Z" fill="black"/>
<path d="M4311.77 1653.79H4908.93C5000.5 1653.79 5075 1728.23 5075 1819.75V2416.52C5075 2508 5000.5 2582.47 4908.93 2582.47H4491.71C4473.96 2582.47 4456.44 2583.42 4439.19 2585.26C4325.48 2597.31 4223.16 2648.08 4145.7 2724.05C4144.75 2724.95 4143.83 2725.87 4142.91 2726.79C4142.61 2727.12 4142.27 2727.43 4141.96 2727.74C4141.04 2728.66 4140.12 2729.58 4139.23 2730.52C4063.17 2807.92 4012.37 2910.18 4000.32 3023.81C3998.47 3041.07 3997.52 3058.56 3997.52 3076.3V3493.25C3997.52 3584.77 3923.03 3659.21 3831.45 3659.21H3234.27C3142.73 3659.21 3068.2 3584.77 3068.2 3493.25V2896.48C3068.2 2804.97 3142.73 2730.52 3234.27 2730.52H3651.51C3669.26 2730.52 3686.76 2729.58 3704.04 2727.74C3817.75 2715.69 3920.07 2664.92 3997.52 2588.92C3998.47 2588.03 3999.39 2587.11 4000.32 2586.18L4001.24 2585.26C4002.16 2584.34 4003.08 2583.42 4003.97 2582.47C4080.06 2505.08 4130.85 2402.82 4142.91 2289.19C4144.75 2271.93 4145.7 2254.44 4145.7 2236.7V1819.75C4145.7 1728.23 4220.2 1653.79 4311.77 1653.79Z" fill="black"/>
<path d="M4897.51 2727.76H4427.74C4445.02 2729.6 4462.52 2730.55 4480.27 2730.55H4897.51C4989.09 2730.55 5063.58 2804.99 5063.58 2896.51V3493.25C5063.58 3584.77 4989.09 3659.21 4897.51 3659.21H4300.33C4208.78 3659.21 4134.26 3584.77 4134.26 3493.25V3076.33C4134.26 3058.59 4133.31 3041.07 4131.47 3023.83V3493.25C4131.47 3586.3 4207.22 3662 4300.33 3662H4897.51C4990.62 3662 5066.37 3586.3 5066.37 3493.25V2896.51C5066.37 2803.46 4990.62 2727.76 4897.51 2727.76Z" fill="black"/>
<path d="M4127.81 2582.48C4128.71 2583.42 4129.63 2584.35 4130.55 2585.27H4131.47V2586.19C4132.39 2587.11 4133.31 2588.03 4134.26 2588.92V2582.48H4127.81ZM3989.85 2727.77H3988.9V2726.82C3987.98 2725.9 3987.06 2724.98 3986.11 2724.08V2730.55H3992.58C3991.69 2729.61 3990.77 2728.69 3989.85 2727.77Z" fill="black"/>
<path d="M3988.9 2236.7V2289.19C4000.96 2402.82 4051.76 2505.07 4127.81 2582.47H4131.69C4043.47 2493.67 3988.9 2371.44 3988.9 2236.7ZM3988.9 2236.7V2289.19C4000.96 2402.82 4051.76 2505.07 4127.81 2582.47H4131.69C4043.47 2493.67 3988.9 2371.44 3988.9 2236.7ZM4480.27 2727.76C4345.46 2727.76 4223.13 2673.21 4134.26 2585.04C4133.42 2584.2 4132.56 2583.34 4131.69 2582.47C4043.47 2493.67 3988.9 2371.44 3988.9 2236.7V2184.21C3987.06 2201.47 3986.11 2218.96 3986.11 2236.7C3986.11 2254.44 3987.06 2271.93 3988.9 2289.19C4000.96 2402.82 4051.76 2505.07 4127.81 2582.47C4128.71 2583.42 4129.63 2584.34 4130.55 2585.26L4131.47 2586.18C4132.39 2587.1 4133.31 2588.02 4134.26 2588.92C4211.71 2664.95 4314.03 2715.71 4427.74 2727.76C4445.02 2729.6 4462.52 2730.55 4480.27 2730.55C4498.02 2730.55 4515.52 2729.6 4532.8 2727.76H4480.27ZM3988.9 2236.7V2289.19C4000.96 2402.82 4051.76 2505.07 4127.81 2582.47H4131.69C4043.47 2493.67 3988.9 2371.44 3988.9 2236.7Z" fill="black"/>
<path d="M4134.26 3076.33C4134.26 3058.59 4133.31 3041.07 4131.47 3023.84C4119.41 2910.21 4068.61 2807.95 3992.59 2730.55C3991.69 2729.61 3990.77 2728.69 3989.85 2727.77C3989.52 2727.46 3989.21 2727.12 3988.9 2726.82C3987.98 2725.9 3987.06 2724.98 3986.11 2724.08C3908.66 2648.08 3806.34 2597.32 3692.63 2585.27C3675.35 2583.42 3657.85 2582.48 3640.1 2582.48C3622.35 2582.48 3604.85 2583.42 3587.57 2585.27H3640.1C3774.94 2585.27 3897.24 2639.79 3986.11 2727.96C3986.98 2728.85 3987.84 2729.69 3988.71 2730.55C4076.9 2819.36 4131.47 2941.61 4131.47 3076.33V3128.82C4133.31 3111.56 4134.26 3094.07 4134.26 3076.33Z" fill="black"/>
</g>
<defs>
<clipPath id="clip0_1058_230">
<rect width="2021" height="2011" fill="white" transform="translate(3054 1651)"/>
</clipPath>
</defs>
</svg>
