<svg width="8128" height="5313" viewBox="0 0 8128 5313" fill="none" xmlns="http://www.w3.org/2000/svg">
<g clip-path="url(#clip0_1058_239)">
<path d="M3842.05 1682H3271.28C3170.79 1682 3089 1763.76 3089 1864.28V2435.03C3089 2535.56 3170.79 2617.31 3271.28 2617.31H3812.85C3796.61 2614.93 3780 2613.7 3763.11 2613.7H3271.28C3172.78 2613.7 3092.61 2533.57 3092.61 2435.03V1864.28C3092.61 1765.74 3172.78 1685.61 3271.28 1685.61H3842.05C3940.59 1685.61 4020.72 1765.74 4020.72 1864.28V2356.09C4020.72 2372.98 4021.95 2389.58 4024.33 2405.83V1864.28C4024.33 1763.76 3942.58 1682 3842.05 1682Z" fill="black"/>
<path d="M5035.39 2878.93V3449.72C5035.39 3548.22 4955.22 3628.39 4856.72 3628.39H4285.95C4187.41 3628.39 4107.28 3548.22 4107.28 3449.72V2957.88C4107.28 2940.98 4106.05 2924.38 4103.67 2908.14C4081.87 2758.09 3962.9 2639.11 3812.85 2617.31C3796.61 2614.93 3780 2613.7 3763.11 2613.7H3271.28C3172.78 2613.7 3092.61 2533.57 3092.61 2435.03V1864.28C3092.61 1765.74 3172.78 1685.61 3271.28 1685.61H3842.05C3940.59 1685.61 4020.72 1765.74 4020.72 1864.28V2356.09C4020.72 2372.98 4021.95 2389.58 4024.33 2405.83C4046.13 2555.88 4165.1 2674.85 4315.15 2696.65C4331.39 2699.03 4348 2700.26 4364.89 2700.26H4856.72C4955.22 2700.26 5035.39 2780.43 5035.39 2878.93Z" fill="black"/>
<path d="M4285.95 1685.57H4856.72C4955.23 1685.57 5035.39 1765.74 5035.39 1864.25V2435.03C5035.39 2533.57 4955.23 2613.7 4856.72 2613.7H4364.89C4348 2613.7 4331.4 2614.93 4315.15 2617.31C4165.11 2639.12 4046.14 2758.09 4024.33 2908.14C4021.95 2924.38 4020.72 2940.98 4020.72 2957.88V3449.72C4020.72 3548.22 3940.59 3628.39 3842.05 3628.39H3271.32C3172.78 3628.39 3092.65 3548.22 3092.65 3449.72V2878.94C3092.65 2780.39 3172.78 2700.26 3271.32 2700.26H3763.11C3780.01 2700.26 3796.61 2699.03 3812.85 2696.65C3962.9 2674.85 4081.87 2555.88 4103.67 2405.83C4106.05 2389.59 4107.28 2372.98 4107.28 2356.09V1864.25C4107.28 1765.74 4187.45 1685.57 4285.95 1685.57Z" fill="black"/>
<path d="M4856.72 2696.65H4315.15C4331.4 2699.03 4348 2700.26 4364.89 2700.26H4856.72C4955.23 2700.26 5035.39 2780.43 5035.39 2878.94V3449.72C5035.39 3548.22 4955.23 3628.39 4856.72 3628.39H4285.95C4187.41 3628.39 4107.28 3548.22 4107.28 3449.72V2957.88C4107.28 2940.98 4106.05 2924.38 4103.67 2908.14V3449.72C4103.67 3550.21 4185.43 3632 4285.95 3632H4856.72C4957.21 3632 5039 3550.21 5039 3449.72V2878.94C5039 2778.45 4957.21 2696.65 4856.72 2696.65Z" fill="black"/>
<path d="M4364.89 2696.65C4177.12 2696.65 4024.33 2543.89 4024.33 2356.09V2306.35C4021.95 2322.59 4020.72 2339.19 4020.72 2356.09C4020.72 2372.98 4021.95 2389.58 4024.33 2405.83C4046.13 2555.88 4165.1 2674.85 4315.15 2696.65C4331.39 2699.03 4347.99 2700.26 4364.89 2700.26C4381.78 2700.26 4398.38 2699.03 4414.62 2696.65H4364.89Z" fill="black"/>
<path d="M4107.28 2957.88C4107.28 2940.98 4106.05 2924.38 4103.67 2908.14C4081.87 2758.09 3962.9 2639.11 3812.85 2617.31C3796.61 2614.93 3780.01 2613.7 3763.11 2613.7C3746.22 2613.7 3729.62 2614.93 3713.38 2617.31H3763.11C3950.88 2617.31 4103.67 2770.11 4103.67 2957.88V3007.62C4106.05 2991.37 4107.28 2974.77 4107.28 2957.88Z" fill="black"/>
</g>
<defs>
<clipPath id="clip0_1058_239">
<rect width="1950" height="1950" fill="white" transform="translate(3089 1682)"/>
</clipPath>
</defs>
</svg>
