<svg width="8128" height="5313" viewBox="0 0 8128 5313" fill="none" xmlns="http://www.w3.org/2000/svg">
<g clip-path="url(#clip0_1058_234)">
<path d="M3878.92 1699H3271.86C3180.97 1699 3107 1772.97 3107 1863.86V2470.92C3107 2561.83 3180.97 2635.77 3271.86 2635.77H3866.58C3853.09 2633.62 3839.25 2632.51 3825.15 2632.51H3271.86C3182.77 2632.51 3110.26 2560 3110.26 2470.92V1863.86C3110.26 1774.77 3182.77 1702.26 3271.86 1702.26H3878.92C3968 1702.26 4040.51 1774.77 4040.51 1863.86V2417.15C4040.51 2431.25 4041.62 2445.09 4043.77 2458.58V1863.86C4043.77 1772.97 3969.83 1699 3878.92 1699Z" fill="black"/>
<path d="M5018.74 2842.09V3449.15C5018.74 3538.23 4946.23 3610.74 4857.15 3610.74H4250.09C4161 3610.74 4088.49 3538.23 4088.49 3449.15V2895.85C4088.49 2881.75 4087.39 2867.91 4085.23 2854.43C4067.44 2742.32 3978.68 2653.56 3866.58 2635.77C3853.09 2633.62 3839.25 2632.51 3825.15 2632.51H3271.86C3182.77 2632.51 3110.27 2560 3110.27 2470.92V1863.86C3110.27 1774.77 3182.77 1702.27 3271.86 1702.27H3878.92C3968 1702.27 4040.51 1774.77 4040.51 1863.86V2417.15C4040.51 2431.25 4041.62 2445.09 4043.77 2458.58C4061.56 2570.68 4150.32 2659.44 4262.43 2677.23C4275.91 2679.39 4289.75 2680.49 4303.85 2680.49H4857.15C4946.23 2680.49 5018.74 2753 5018.74 2842.09Z" fill="white"/>
<path d="M4857.14 2677.23H4262.42C4275.9 2679.39 4289.75 2680.49 4303.85 2680.49H4857.14C4946.23 2680.49 5018.73 2753 5018.73 2842.09V3449.15C5018.73 3538.23 4946.23 3610.74 4857.14 3610.74H4250.08C4160.99 3610.74 4088.49 3538.23 4088.49 3449.15V2895.85C4088.49 2881.75 4087.38 2867.91 4085.23 2854.43V3449.15C4085.23 3540.06 4159.2 3614 4250.08 3614H4857.14C4948.06 3614 5022 3540.06 5022 3449.15V2842.09C5022 2751.2 4948.06 2677.23 4857.14 2677.23Z" fill="black"/>
<path d="M4303.85 2677.23C4160.44 2677.23 4043.77 2560.56 4043.77 2417.15V2375.72C4041.62 2389.2 4040.51 2403.05 4040.51 2417.15C4040.51 2431.25 4041.62 2445.09 4043.77 2458.57C4061.56 2570.68 4150.32 2659.44 4262.43 2677.23C4275.91 2679.38 4289.75 2680.49 4303.85 2680.49C4317.95 2680.49 4331.8 2679.38 4345.28 2677.23H4303.85Z" fill="black"/>
<path d="M4088.5 2895.85C4088.5 2881.75 4087.39 2867.91 4085.23 2854.43C4067.44 2742.32 3978.68 2653.56 3866.58 2635.77C3853.1 2633.62 3839.26 2632.51 3825.15 2632.51C3811.05 2632.51 3797.21 2633.62 3783.73 2635.77H3825.15C3968.56 2635.77 4085.23 2752.44 4085.23 2895.85V2937.28C4087.39 2923.8 4088.5 2909.95 4088.5 2895.85Z" fill="black"/>
<path d="M4250.09 1702.27H4857.15C4946.23 1702.27 5018.74 1774.77 5018.74 1863.86V2470.92C5018.74 2560 4946.23 2632.51 4857.15 2632.51H4303.85C4289.75 2632.51 4275.91 2633.62 4262.43 2635.77C4150.32 2653.56 4061.56 2742.32 4043.77 2854.43C4041.62 2867.91 4040.51 2881.75 4040.51 2895.85V3449.15C4040.51 3538.23 3968 3610.74 3878.92 3610.74H3271.86C3182.77 3610.74 3110.27 3538.23 3110.27 3449.15V2842.09C3110.27 2753 3182.77 2680.49 3271.86 2680.49H3825.15C3839.25 2680.49 3853.09 2679.39 3866.58 2677.23C3978.68 2659.44 4067.44 2570.68 4085.23 2458.58C4087.39 2445.09 4088.49 2431.25 4088.49 2417.15V1863.86C4088.49 1774.77 4161 1702.27 4250.09 1702.27Z" fill="white"/>
</g>
<defs>
<clipPath id="clip0_1058_234">
<rect width="1915" height="1915" fill="green" transform="translate(3107 1699)"/>
</clipPath>
</defs>
</svg>
