<svg width="99" height="100" viewBox="0 0 99 100" fill="none" xmlns="http://www.w3.org/2000/svg">
    <g filter="url(#filter0_d_1004_1270)">
        <path d="M94.9971 7.08026V32.9384C94.9971 36.4679 92.1369 39.3282 88.6074 39.3282H73.3014C56.367 39.3282 42.6388 53.0566 42.6388 69.9913V85.2993C42.6388 88.8271 39.7786 91.6874 36.2491 91.6874H10.3897C6.86026 91.6892 4 88.8289 4 85.3011V59.4412C4 55.9135 6.86026 53.0531 10.3897 53.0531H25.6957C42.6301 53.0531 56.3583 39.3247 56.3583 22.3882V7.08201C56.36 3.55249 59.2203 0.69043 62.7498 0.69043H88.6057C92.1369 0.69043 94.9971 3.55249 94.9971 7.08026Z" fill="#DA0739"/>
        <path d="M10.3898 0.692459L36.248 0.692458C39.7775 0.692458 42.6378 3.55271 42.6378 7.08216L42.6378 22.3881C42.6378 39.3225 56.3663 53.0507 73.301 53.0507L88.609 53.0507C92.1368 53.0507 94.9971 55.9109 94.9971 59.4404L94.9971 85.2997C94.9989 88.8292 92.1386 91.6894 88.6108 91.6894L62.7509 91.6895C59.2231 91.6895 56.3628 88.8292 56.3628 85.2997L56.3628 69.9938C56.3628 53.0594 42.6343 39.3312 25.6978 39.3312L10.3916 39.3312C6.86206 39.3295 4 36.4692 4 32.9398L4 7.08392C4 3.55271 6.86206 0.692459 10.3898 0.692459Z" fill="#DA0739"/>
    </g>
    <defs>
        <filter id="filter0_d_1004_1270" x="0" y="0.69043" width="98.9961" height="98.999" filterUnits="userSpaceOnUse" color-interpolation-filters="sRGB">
            <feFlood flood-opacity="0" result="BackgroundImageFix"/>
            <feColorMatrix in="SourceAlpha" type="matrix" values="0 0 0 0 0 0 0 0 0 0 0 0 0 0 0 0 0 0 127 0" result="hardAlpha"/>
            <feOffset dy="4"/>
            <feGaussianBlur stdDeviation="2"/>
            <feComposite in2="hardAlpha" operator="out"/>
            <feColorMatrix type="matrix" values="0 0 0 0 0 0 0 0 0 0 0 0 0 0 0 0 0 0 0.25 0"/>
            <feBlend mode="normal" in2="BackgroundImageFix" result="effect1_dropShadow_1004_1270"/>
            <feBlend mode="normal" in="SourceGraphic" in2="effect1_dropShadow_1004_1270" result="shape"/>
        </filter>
    </defs>
</svg>